<svg id="Layer_1" data-name="Layer 1" xmlns="http://www.w3.org/2000/svg" viewBox="0 0 742.74 207.37"><defs><style>.cls-1{fill:#16995f;}.cls-2{fill:#094c37;}.cls-3{fill:#f0f0f1;opacity:0.25;}</style></defs><title>KSVR - AW Logo</title><path class="cls-1" d="M132.28,136.29c3-5.18,4.88-10.88,6.91-16.91,2.11-6.26,4.3-12.74,7.77-18.7a52.53,52.53,0,0,1,19.14-18.88V32.58a11.26,11.26,0,0,0-11.26-11.26h-45A11.26,11.26,0,0,0,98.53,32.58V91.22H39.89a11.26,11.26,0,0,0-11.26,11.26v45a11.26,11.26,0,0,0,11.26,11.26H98.08A46.2,46.2,0,0,0,132.28,136.29Z" transform="translate(-28.63 -21.32)"/><path class="cls-2" d="M224.73,91.22H166.2a44,44,0,0,0-12.34,13.49c-3.06,5.26-5,11.08-7.1,17.23s-4.2,12.46-7.54,18.31a54.36,54.36,0,0,1-40.68,26.52v50.65a11.26,11.26,0,0,0,11.26,11.26h45a11.26,11.26,0,0,0,11.26-11.26V158.78h58.64A11.26,11.26,0,0,0,236,147.52v-45A11.26,11.26,0,0,0,224.73,91.22Z" transform="translate(-28.63 -21.32)"/><path class="cls-3" d="M165.82,30.13a11.26,11.26,0,0,0-11-8.81h-45A11.26,11.26,0,0,0,98.53,32.58V91.22H39.89a11.26,11.26,0,0,0-11.26,11.26v45a11.21,11.21,0,0,0,.75,4c26.36.08,52.64-12.3,68.93-33.11,7-9,12.25-19.24,17.77-30.08C121.8,77.07,127.73,65.42,136,55.09A99.07,99.07,0,0,1,165.82,30.13Z" transform="translate(-28.63 -21.32)"/><path class="cls-2" d="M286.62,29.36h26.79V86.77l50.67-57.41h32.63L347.86,83.67l52.31,70.91H367.54l-38.46-51.76-15.67,16.77v35H286.62Z" transform="translate(-28.63 -21.32)"/><path class="cls-2" d="M404.94,136l15.49-18.41C432.28,127.78,445.77,134,461.63,134c13.49,0,20.42-6.2,20.42-14,0-8.93-7.3-11.67-26.43-16-26.43-6-45.2-13.49-45.2-37.73,0-23.15,19-39,46.3-39,20.42,0,36.27,6.38,49,17.31l-14,19.32C480.58,54.88,468,50,456,50c-11.49,0-18.41,6-18.41,13.49,0,9.11,7.47,12,26.79,16.4,27,6,44.83,14,44.83,37.18,0,23.88-18,39.74-48.66,39.74C438.84,156.76,419.52,149.47,404.94,136Z" transform="translate(-28.63 -21.32)"/><path class="cls-2" d="M650.67,29.36l-51,125.22H569.56l-51-125.22h30.25l35.91,88.22L620.6,29.36Z" transform="translate(-28.63 -21.32)"/><path class="cls-2" d="M740.75,154.58l-28.62-40.65H692.26v40.65H665.47V29.36h56.32c27.16,0,47.21,17.5,47.21,42.29,0,18.59-11.3,33.17-28.43,39.19l30.81,43.75ZM692.26,89.33h26.61c13.31,0,22.42-6.93,22.42-17.68S732.18,54,718.87,54H692.26Z" transform="translate(-28.63 -21.32)"/><path class="cls-2" d="M290,187.77a3,3,0,0,0-.25-1.21,3,3,0,0,0-.7-1,3.28,3.28,0,0,0-1.08-.67,3.74,3.74,0,0,0-1.4-.25l1.14-4.17H300l2,4.61h-7.49a2.74,2.74,0,0,1,.56.64,4.83,4.83,0,0,1,.43.82,5.19,5.19,0,0,1,.28.93,4.73,4.73,0,0,1,.1.93v22.32h2.34v4.52H290Z" transform="translate(-28.63 -21.32)"/><path class="cls-2" d="M305.91,206.55a4.85,4.85,0,0,0,1.17,3.2,3.89,3.89,0,0,0,2.89,1,5.71,5.71,0,0,0,1.09-.11,3.52,3.52,0,0,0,1.06-.38,2.26,2.26,0,0,0,.8-.71,2,2,0,0,0,.31-1.14,1.51,1.51,0,0,0-.26-.88,2.84,2.84,0,0,0-.8-.73,9,9,0,0,0-1.35-.7q-.81-.35-1.93-.78-1.69-.64-3.16-1.28a12.72,12.72,0,0,1-2.56-1.45,6.23,6.23,0,0,1-1.71-1.91,5.19,5.19,0,0,1-.62-2.61,6.8,6.8,0,0,1,.34-2.22,5.64,5.64,0,0,1,.95-1.73,6.19,6.19,0,0,1,1.42-1.28,8.24,8.24,0,0,1,1.75-.87,10.88,10.88,0,0,1,2-.49,14.09,14.09,0,0,1,2-.15,15,15,0,0,1,3.64.42,7.47,7.47,0,0,1,2.9,1.41,7,7,0,0,1,2,2.65,11.23,11.23,0,0,1,.82,4.14h-5.66a5.35,5.35,0,0,0-.3-1.74,3.25,3.25,0,0,0-.73-1.17,2.68,2.68,0,0,0-1-.66,3.82,3.82,0,0,0-1.23-.2,4.67,4.67,0,0,0-1,.1,3.63,3.63,0,0,0-.91.32,2,2,0,0,0-.67.57,1.37,1.37,0,0,0-.26.84,1.18,1.18,0,0,0,.24.71,2.64,2.64,0,0,0,.75.64,8.5,8.5,0,0,0,1.32.66c.54.23,1.2.47,2,.74a28.73,28.73,0,0,1,4,1.72,10.35,10.35,0,0,1,2.45,1.76,5.14,5.14,0,0,1,1.25,1.92,6.7,6.7,0,0,1,.35,2.18,7.43,7.43,0,0,1-.73,3.44,6,6,0,0,1-2,2.27,8.39,8.39,0,0,1-3,1.24,16.84,16.84,0,0,1-3.68.38,12.78,12.78,0,0,1-3.65-.51,8.27,8.27,0,0,1-3-1.6,8,8,0,0,1-2.09-2.83,11.43,11.43,0,0,1-.92-4.2Z" transform="translate(-28.63 -21.32)"/><path class="cls-2" d="M330.08,210.27a1.21,1.21,0,0,0,.31.48.65.65,0,0,0,.44.15.53.53,0,0,0,.41-.19.56.56,0,0,0,.16-.39V196.56h-3.15v-4.74h9v17.82a7.05,7.05,0,0,1-.5,2.79,5.2,5.2,0,0,1-1.37,1.91,5.66,5.66,0,0,1-2,1.1,8.69,8.69,0,0,1-2.53.35,7.94,7.94,0,0,1-2.38-.32,5.35,5.35,0,0,1-1.76-.92,5.64,5.64,0,0,1-1.27-1.46,10.59,10.59,0,0,1-.91-1.93l-3.83-10.5h6.06Z" transform="translate(-28.63 -21.32)"/><path class="cls-2" d="M357.21,191.82,361,205l2.86-13.13h6.29l-6.23,23.41h-5L355,201.88l-3.87,13.35h-5L340,191.82h6.29l2.84,13.24,3.83-13.24Z" transform="translate(-28.63 -21.32)"/><path class="cls-2" d="M372.52,197.93a6.49,6.49,0,0,1,.32-2.14,5.48,5.48,0,0,1,.86-1.6,5.14,5.14,0,0,1,1.25-1.13,7.26,7.26,0,0,1,1.5-.72,8.62,8.62,0,0,1,1.6-.4,11.34,11.34,0,0,1,1.55-.12h4.06v4.85h-3.32a3.08,3.08,0,0,0-.92.13,1.78,1.78,0,0,0-.64.34,1.33,1.33,0,0,0-.37.49,1.46,1.46,0,0,0-.12.57,2.28,2.28,0,0,0,.15.81,1.94,1.94,0,0,0,.44.67,2.2,2.2,0,0,0,.72.47,3.07,3.07,0,0,0,1,.23h3.08v4.39H380.8a5,5,0,0,0-.91.13,1.82,1.82,0,0,0-.77.39,1.88,1.88,0,0,0-.53.81,4.17,4.17,0,0,0-.2,1.41,2.77,2.77,0,0,0,.38,1.46,3.5,3.5,0,0,0,1,1.07,4.82,4.82,0,0,0,1.44.67,6.11,6.11,0,0,0,1.66.23,5.36,5.36,0,0,0,1.76-.28,3.58,3.58,0,0,0,1.39-.87,4,4,0,0,0,.92-1.5,6.53,6.53,0,0,0,.33-2.2V191.82h5.77v15a8.93,8.93,0,0,1-.8,3.89,8,8,0,0,1-2.18,2.81,9.44,9.44,0,0,1-3.24,1.7,13.29,13.29,0,0,1-4,.57,15.88,15.88,0,0,1-2.57-.21,12.55,12.55,0,0,1-2.43-.64,10.87,10.87,0,0,1-2.14-1.1,7.44,7.44,0,0,1-1.71-1.56,7.1,7.1,0,0,1-1.13-2,7.54,7.54,0,0,1-.41-2.56,7.86,7.86,0,0,1,.55-3,4.17,4.17,0,0,1,1.79-2,6.54,6.54,0,0,1-1-1,6.45,6.45,0,0,1-.73-1.17,5.87,5.87,0,0,1-.44-1.24A5.44,5.44,0,0,1,372.52,197.93Z" transform="translate(-28.63 -21.32)"/><path class="cls-2" d="M395.76,200a8.7,8.7,0,0,1,.77-3.75,8.28,8.28,0,0,1,2-2.73,8.68,8.68,0,0,1,2.89-1.68,9.93,9.93,0,0,1,3.34-.58,11.88,11.88,0,0,1,3.47.49,7.84,7.84,0,0,1,2.8,1.49,6.89,6.89,0,0,1,1.86,2.52,8.87,8.87,0,0,1,.67,3.61v15.82h-5.83V200.16a4.53,4.53,0,0,0-.76-2.93,2.72,2.72,0,0,0-2.21-.91,2.65,2.65,0,0,0-2.1.93,4.66,4.66,0,0,0-.93,2.78Z" transform="translate(-28.63 -21.32)"/><path class="cls-2" d="M428.3,210.71a5.09,5.09,0,0,0,2.19-.42,3.9,3.9,0,0,0,1.41-1.09,4.14,4.14,0,0,0,.75-1.5,6.42,6.42,0,0,0,.22-1.67V191.82h5.83v13.82a16.59,16.59,0,0,1-.19,2.53,10.16,10.16,0,0,1-.65,2.38,8.43,8.43,0,0,1-1.23,2.07,7.26,7.26,0,0,1-1.92,1.64,9.94,9.94,0,0,1-2.74,1.09,15.61,15.61,0,0,1-3.66.39,15.77,15.77,0,0,1-3.68-.39,9.77,9.77,0,0,1-2.74-1.09,7.23,7.23,0,0,1-1.92-1.64,8,8,0,0,1-1.22-2.07,10.58,10.58,0,0,1-.64-2.38,16.59,16.59,0,0,1-.19-2.53V191.82h5.76V206a6.42,6.42,0,0,0,.22,1.67,4.07,4.07,0,0,0,.76,1.5,3.91,3.91,0,0,0,1.43,1.09A5.21,5.21,0,0,0,428.3,210.71Z" transform="translate(-28.63 -21.32)"/><path class="cls-2" d="M441.38,200a8.7,8.7,0,0,1,.77-3.75,8.28,8.28,0,0,1,2-2.73,8.68,8.68,0,0,1,2.89-1.68,9.93,9.93,0,0,1,3.34-.58,11.88,11.88,0,0,1,3.47.49,7.84,7.84,0,0,1,2.8,1.49,6.89,6.89,0,0,1,1.86,2.52,8.87,8.87,0,0,1,.67,3.61v15.82h-5.83V200.16a4.53,4.53,0,0,0-.76-2.93,2.72,2.72,0,0,0-2.21-.91,2.65,2.65,0,0,0-2.1.93,4.66,4.66,0,0,0-.93,2.78Z" transform="translate(-28.63 -21.32)"/><path class="cls-2" d="M478,204.5a7.22,7.22,0,0,1-1.92.87q-1,.27-1.79.44l-2,.4a11.34,11.34,0,0,0-1.81.49,4.16,4.16,0,0,0-1.3.71,1.38,1.38,0,0,0-.5,1.1,2.19,2.19,0,0,0,.32,1.22,2.49,2.49,0,0,0,.83.8,3.78,3.78,0,0,0,1.14.42,6.56,6.56,0,0,0,1.25.12,10.15,10.15,0,0,0,1.44-.12,18.34,18.34,0,0,0,1.82-.39V215a21.6,21.6,0,0,1-2.18.51,11.62,11.62,0,0,1-2,.17,14.29,14.29,0,0,1-3.25-.36,7.77,7.77,0,0,1-2.7-1.19,5.83,5.83,0,0,1-1.84-2.14,7,7,0,0,1-.68-3.22,6.51,6.51,0,0,1,.34-2.2,5.31,5.31,0,0,1,1-1.7,6.25,6.25,0,0,1,1.57-1.28,12.38,12.38,0,0,1,2.11-1,23.73,23.73,0,0,1,2.59-.74c.94-.21,1.95-.41,3-.6.57-.1,1.12-.22,1.66-.36a7.84,7.84,0,0,0,1.45-.51,3.38,3.38,0,0,0,1-.7,1.33,1.33,0,0,0,.38-.95,2.27,2.27,0,0,0-.35-1.34,2.21,2.21,0,0,0-.91-.74,3.93,3.93,0,0,0-1.27-.31c-.47,0-.94-.06-1.41-.06a8.45,8.45,0,0,0-1.74.17,3.34,3.34,0,0,0-1.37.61,3.1,3.1,0,0,0-.93,1.2,5.28,5.28,0,0,0-.41,2h-5.94a11.52,11.52,0,0,1,.47-3.07,8,8,0,0,1,1.14-2.34,6.93,6.93,0,0,1,1.69-1.68,9.6,9.6,0,0,1,2.14-1.1,12,12,0,0,1,2.49-.61,21,21,0,0,1,2.74-.18,19.52,19.52,0,0,1,2.25.13,12.09,12.09,0,0,1,2.18.45,9.12,9.12,0,0,1,2,.86,5.91,5.91,0,0,1,2.65,3.25,7.65,7.65,0,0,1,.39,2.56v16.68H478Z" transform="translate(-28.63 -21.32)"/><path class="cls-2" d="M493.84,215.23h-5.76V201.41a14.1,14.1,0,0,1,.22-2.53,10.24,10.24,0,0,1,.72-2.38,8.26,8.26,0,0,1,1.32-2.08,7.85,7.85,0,0,1,2-1.64,10.63,10.63,0,0,1,2.82-1.09,16.2,16.2,0,0,1,3.72-.39,16,16,0,0,1,3.69.39,10.38,10.38,0,0,1,2.79,1.09,7.77,7.77,0,0,1,2,1.64,8.21,8.21,0,0,1,1.31,2.08,10.21,10.21,0,0,1,.71,2.38,14.65,14.65,0,0,1,.22,2.53v13.82h-5.83V201a5.26,5.26,0,0,0-.27-1.64,4.23,4.23,0,0,0-.86-1.49,4.35,4.35,0,0,0-1.52-1.08,5.49,5.49,0,0,0-2.26-.42,5.71,5.71,0,0,0-2.29.42,4.71,4.71,0,0,0-1.58,1.08,4.29,4.29,0,0,0-.92,1.49,4.78,4.78,0,0,0-.3,1.64v2.18A9.5,9.5,0,0,1,495.2,202a7.78,7.78,0,0,1,1.55-.81,8.89,8.89,0,0,1,1.8-.49,13.65,13.65,0,0,1,2.1-.2v5a10.28,10.28,0,0,0-3.12.55,5.49,5.49,0,0,0-2.11,1.32,5.25,5.25,0,0,0-1.2,2,8.6,8.6,0,0,0-.38,2.66Z" transform="translate(-28.63 -21.32)"/><path class="cls-2" d="M504.08,180.68h5.59v7.77h-5.59Z" transform="translate(-28.63 -21.32)"/><path class="cls-2" d="M512.36,200a8.7,8.7,0,0,1,.77-3.75,8.28,8.28,0,0,1,2-2.73,8.68,8.68,0,0,1,2.89-1.68,9.93,9.93,0,0,1,3.34-.58,11.88,11.88,0,0,1,3.47.49,7.84,7.84,0,0,1,2.8,1.49,6.89,6.89,0,0,1,1.86,2.52,8.87,8.87,0,0,1,.67,3.61v15.82h-5.83V200.16a4.53,4.53,0,0,0-.76-2.93,2.72,2.72,0,0,0-2.21-.91,2.65,2.65,0,0,0-2.1.93,4.66,4.66,0,0,0-.93,2.78Z" transform="translate(-28.63 -21.32)"/><path class="cls-2" d="M534.11,197.93a6.49,6.49,0,0,1,.32-2.14,5.48,5.48,0,0,1,.86-1.6,5.14,5.14,0,0,1,1.25-1.13,7.26,7.26,0,0,1,1.5-.72,8.62,8.62,0,0,1,1.6-.4,11.34,11.34,0,0,1,1.55-.12h4.06v4.85h-3.32a3.08,3.08,0,0,0-.92.13,1.78,1.78,0,0,0-.64.34,1.33,1.33,0,0,0-.37.49,1.46,1.46,0,0,0-.12.57,2.28,2.28,0,0,0,.15.81,1.94,1.94,0,0,0,.44.67,2.2,2.2,0,0,0,.72.47,3.07,3.07,0,0,0,1,.23h3.08v4.39H542.4a5,5,0,0,0-.91.13,1.82,1.82,0,0,0-.77.39,1.88,1.88,0,0,0-.53.81,4.17,4.17,0,0,0-.2,1.41,2.77,2.77,0,0,0,.38,1.46,3.5,3.5,0,0,0,1,1.07,4.82,4.82,0,0,0,1.44.67,6.11,6.11,0,0,0,1.66.23,5.36,5.36,0,0,0,1.76-.28,3.58,3.58,0,0,0,1.39-.87,4,4,0,0,0,.92-1.5,6.53,6.53,0,0,0,.33-2.2V191.82h5.77v15a8.93,8.93,0,0,1-.8,3.89,8,8,0,0,1-2.18,2.81,9.44,9.44,0,0,1-3.24,1.7,13.29,13.29,0,0,1-4,.57,15.88,15.88,0,0,1-2.57-.21,12.55,12.55,0,0,1-2.43-.64,10.87,10.87,0,0,1-2.14-1.1,7.44,7.44,0,0,1-1.71-1.56,7.1,7.1,0,0,1-1.13-2,7.54,7.54,0,0,1-.41-2.56,7.86,7.86,0,0,1,.55-3,4.17,4.17,0,0,1,1.79-2,6.54,6.54,0,0,1-1-1,6.45,6.45,0,0,1-.73-1.17,5.87,5.87,0,0,1-.44-1.24A5.44,5.44,0,0,1,534.11,197.93Z" transform="translate(-28.63 -21.32)"/><path class="cls-2" d="M568.72,196.32a8.05,8.05,0,0,0-2,.2,6.07,6.07,0,0,0-1.49.56,4,4,0,0,0-1,.77,2.45,2.45,0,0,0-.52.81,3.9,3.9,0,0,1,1.07,1.68,7.17,7.17,0,0,1,.35,2.32v12.56h-5.77V202.61a4,4,0,0,0-.08-.8,2.94,2.94,0,0,0-.3-.82,3.56,3.56,0,0,0-.62-.79,4.35,4.35,0,0,0-1-.73,11.56,11.56,0,0,1,.67-2,9.93,9.93,0,0,1,1.11-1.89,10.29,10.29,0,0,1,1.58-1.69,10.13,10.13,0,0,1,2.09-1.36,12,12,0,0,1,2.65-.91,14.49,14.49,0,0,1,3.26-.34,16.59,16.59,0,0,1,3.76.38,11.28,11.28,0,0,1,2.87,1.06,7.79,7.79,0,0,1,2.08,1.61,8.46,8.46,0,0,1,1.37,2,9.6,9.6,0,0,1,.76,2.33,13.18,13.18,0,0,1,.24,2.49v14h-5.88V200.84a5.23,5.23,0,0,0-.26-1.61,3.83,3.83,0,0,0-.87-1.45,4.4,4.4,0,0,0-1.6-1A7.14,7.14,0,0,0,568.72,196.32Z" transform="translate(-28.63 -21.32)"/><path class="cls-2" d="M592.64,210.71v4.52h-8.17V202.61a3.85,3.85,0,0,0-.09-.8,2.93,2.93,0,0,0-.3-.82,3.56,3.56,0,0,0-.62-.79,4.48,4.48,0,0,0-1-.73,11.56,11.56,0,0,1,.67-2,9.78,9.78,0,0,1,1.11-1.89,9.93,9.93,0,0,1,3.67-3,12,12,0,0,1,2.65-.91,14.51,14.51,0,0,1,3.26-.34,16.59,16.59,0,0,1,3.76.38,11.26,11.26,0,0,1,2.87,1.06,7.81,7.81,0,0,1,2.09,1.61,8.46,8.46,0,0,1,1.37,2,9.6,9.6,0,0,1,.76,2.33,13.18,13.18,0,0,1,.24,2.49v21.6H599v-22a5.32,5.32,0,0,0-.26-1.61,3.86,3.86,0,0,0-.87-1.45,4.45,4.45,0,0,0-1.6-1,7.16,7.16,0,0,0-2.47-.43,8.06,8.06,0,0,0-2,.2,6.11,6.11,0,0,0-1.49.56,4,4,0,0,0-1,.77,2.45,2.45,0,0,0-.52.81,3.89,3.89,0,0,1,1.07,1.68,7.17,7.17,0,0,1,.35,2.32v8Z" transform="translate(-28.63 -21.32)"/><path class="cls-2" d="M617.86,204.67v-6.11H623v1.77h2v-8.5h5.88v8.5h2.05v4.34h-2.05v1a15.24,15.24,0,0,1-.21,2.53,10.24,10.24,0,0,1-.7,2.38,8.22,8.22,0,0,1-1.3,2.07,7.65,7.65,0,0,1-2,1.64,10.45,10.45,0,0,1-2.83,1.09,16.43,16.43,0,0,1-3.75.39,16.94,16.94,0,0,1-3.82-.39,10.54,10.54,0,0,1-2.85-1.09,7.55,7.55,0,0,1-2-1.64,8.15,8.15,0,0,1-1.28-2.07,9.94,9.94,0,0,1-.69-2.38,15.89,15.89,0,0,1-.2-2.53V191.82h5.81V206a5.88,5.88,0,0,0,.24,1.67,4,4,0,0,0,.83,1.5,4.24,4.24,0,0,0,1.55,1.09,6.12,6.12,0,0,0,2.41.42,5.88,5.88,0,0,0,2.38-.42,4.1,4.1,0,0,0,1.5-1.09,4,4,0,0,0,.8-1.5A6.3,6.3,0,0,0,625,206v-1.38Z" transform="translate(-28.63 -21.32)"/><path class="cls-2" d="M668.13,215.23h-5.66v-2.4a8.21,8.21,0,0,1-1,1.13,7.8,7.8,0,0,1-1.26.92,6.41,6.41,0,0,1-1.45.63,5.33,5.33,0,0,1-1.57.23,10,10,0,0,1-3.7-.6,5.58,5.58,0,0,1-2.35-1.74,7,7,0,0,1-1.23-2.79,18.12,18.12,0,0,1-.35-3.78v-6a5.49,5.49,0,0,0-.24-1.58,3.88,3.88,0,0,0-.78-1.42,4.05,4.05,0,0,0-1.45-1,5.86,5.86,0,0,0-2.22-.42,6.58,6.58,0,0,0-1.71.18,6,6,0,0,0-1.36.52,4.49,4.49,0,0,0-1,.73,3.43,3.43,0,0,0-.62.8,4.74,4.74,0,0,1,1.13,1.73,6.25,6.25,0,0,1,.41,2.32v8h2.4v4.52h-8.21V202.61a3.5,3.5,0,0,0-.09-.8,2.77,2.77,0,0,0-.31-.81,3.32,3.32,0,0,0-.61-.78,4.52,4.52,0,0,0-1-.7,11.59,11.59,0,0,1,.68-2,10.34,10.34,0,0,1,1.1-1.91,10.65,10.65,0,0,1,1.55-1.7,9.71,9.71,0,0,1,2-1.37,11.36,11.36,0,0,1,2.54-.91,13.1,13.1,0,0,1,3.08-.34,15.12,15.12,0,0,1,3.58.38,10.38,10.38,0,0,1,2.74,1.07,7.8,7.8,0,0,1,2,1.61,8.47,8.47,0,0,1,1.31,2.05,10,10,0,0,1,.73,2.36,14,14,0,0,1,.22,2.52v5.94a6.2,6.2,0,0,0,.17,1.55,2.58,2.58,0,0,0,.49,1,1.88,1.88,0,0,0,.77.56,2.89,2.89,0,0,0,1,.17,3.91,3.91,0,0,0,1.86-.44,4,4,0,0,0,1.38-1.2,5.57,5.57,0,0,0,.86-1.81,8.5,8.5,0,0,0,.29-2.26v-13h5.88Z" transform="translate(-28.63 -21.32)"/><path class="cls-2" d="M669.14,184.5a5.52,5.52,0,0,0-1.85.28,3.76,3.76,0,0,0-1.36.81,3.33,3.33,0,0,0-.84,1.25,4.3,4.3,0,0,0-.29,1.6h-5.55a7.57,7.57,0,0,1,.74-3.39,7.25,7.25,0,0,1,2.06-2.52,9.46,9.46,0,0,1,3.13-1.58,14.46,14.46,0,0,1,4-.57Z" transform="translate(-28.63 -21.32)"/><path class="cls-2" d="M686.91,204.5a7.22,7.22,0,0,1-1.92.87q-1,.27-1.79.44l-2,.38a12.7,12.7,0,0,0-1.81.47,4,4,0,0,0-1.3.7,1.35,1.35,0,0,0-.5,1.09,2.21,2.21,0,0,0,.33,1.23,2.51,2.51,0,0,0,.82.81,3.84,3.84,0,0,0,1.14.44,5.77,5.77,0,0,0,1.25.14,10.22,10.22,0,0,0,1.45-.12,18.52,18.52,0,0,0,1.82-.39V215a21.65,21.65,0,0,1-2.18.51,11.59,11.59,0,0,1-2,.17,13.34,13.34,0,0,1-3.25-.38,7.83,7.83,0,0,1-2.7-1.2,5.86,5.86,0,0,1-1.84-2.16,7,7,0,0,1-.68-3.24,5.82,5.82,0,0,1,.76-3.09,6.11,6.11,0,0,1,2.14-2.06,13.14,13.14,0,0,1,3.35-1.34q2-.51,4.38-.94c.57-.1,1.12-.22,1.67-.36a7.84,7.84,0,0,0,1.45-.51,3.42,3.42,0,0,0,1-.7,1.33,1.33,0,0,0,.38-.95,2.27,2.27,0,0,0-.35-1.34,2.23,2.23,0,0,0-.91-.74,3.93,3.93,0,0,0-1.27-.31c-.47,0-.94-.06-1.41-.06a8.43,8.43,0,0,0-1.74.17,3.35,3.35,0,0,0-1.37.61,3.07,3.07,0,0,0-.93,1.2,5.23,5.23,0,0,0-.41,2h-5.94a11.64,11.64,0,0,1,.48-3.07,8,8,0,0,1,1.14-2.34,6.92,6.92,0,0,1,1.69-1.68,9.56,9.56,0,0,1,2.14-1.1,11.88,11.88,0,0,1,2.49-.61,21.06,21.06,0,0,1,2.75-.18,19.33,19.33,0,0,1,2.24.13,12.76,12.76,0,0,1,2.16.44,2.07,2.07,0,0,0,.52-.48,2.82,2.82,0,0,0,.35-.62,3.05,3.05,0,0,0,.2-.67,3.65,3.65,0,0,0,.06-.63h5.88a6,6,0,0,1-.2,1.53,6.59,6.59,0,0,1-.58,1.46,6.13,6.13,0,0,1-.92,1.27,5.41,5.41,0,0,1-1.27,1,6.26,6.26,0,0,1,.73,1.71,8.14,8.14,0,0,1,.25,2.11v16.68h-5.77Z" transform="translate(-28.63 -21.32)"/><path class="cls-2" d="M673.65,184.05h13.43v-3.6h5.54v8H671.38Z" transform="translate(-28.63 -21.32)"/><path class="cls-2" d="M709.8,203.52a16.33,16.33,0,0,0-.28-3.22,7.43,7.43,0,0,0-.81-2.27,3.57,3.57,0,0,0-1.3-1.33,3.49,3.49,0,0,0-1.73-.43,2.87,2.87,0,0,0-1.25.27,3.13,3.13,0,0,0-1.05.8,4.42,4.42,0,0,0-.79,1.34,7.55,7.55,0,0,0-.45,1.87h-6a11.6,11.6,0,0,1,.92-3.75,9.44,9.44,0,0,1,2-2.94,8.85,8.85,0,0,1,2.91-1.93,9.72,9.72,0,0,1,3.72-.69,10.68,10.68,0,0,1,4.53.88,8.46,8.46,0,0,1,3.17,2.5,10.7,10.7,0,0,1,1.86,3.87,21,21,0,0,1,0,10,10.63,10.63,0,0,1-1.86,3.86,8.34,8.34,0,0,1-3.17,2.47,10.86,10.86,0,0,1-4.53.87,9.72,9.72,0,0,1-3.72-.69,8.64,8.64,0,0,1-2.91-1.92,9.46,9.46,0,0,1-2-2.95,11.7,11.7,0,0,1-.92-3.77h6a7.61,7.61,0,0,0,.45,1.9,4.42,4.42,0,0,0,.79,1.34,3,3,0,0,0,2.31,1,3.35,3.35,0,0,0,3-1.73,7.11,7.11,0,0,0,.81-2.24A16.25,16.25,0,0,0,709.8,203.52Z" transform="translate(-28.63 -21.32)"/><path class="cls-2" d="M719.46,200.27v-5.94h4.8V196H730v4.23Zm0,11.58V206h4.8v1.71H730v4.17Z" transform="translate(-28.63 -21.32)"/><path class="cls-2" d="M738.58,206.55a4.84,4.84,0,0,0,1.17,3.2,3.89,3.89,0,0,0,2.89,1,5.66,5.66,0,0,0,1.09-.11,3.52,3.52,0,0,0,1.06-.38,2.24,2.24,0,0,0,.8-.71,2,2,0,0,0,.31-1.14,1.53,1.53,0,0,0-.26-.88,2.92,2.92,0,0,0-.8-.73,9.33,9.33,0,0,0-1.35-.7q-.82-.35-1.93-.78-1.68-.64-3.15-1.28a12.75,12.75,0,0,1-2.56-1.45,6.23,6.23,0,0,1-1.71-1.91,5.19,5.19,0,0,1-.62-2.61,6.8,6.8,0,0,1,.34-2.22,5.7,5.7,0,0,1,.95-1.73,6.19,6.19,0,0,1,1.42-1.28A8.31,8.31,0,0,1,738,192a10.91,10.91,0,0,1,2-.49,14,14,0,0,1,2-.15,15,15,0,0,1,3.64.42,7.49,7.49,0,0,1,2.9,1.41,7,7,0,0,1,2,2.65,11.18,11.18,0,0,1,.81,4.14h-5.66a5.35,5.35,0,0,0-.3-1.74,3.25,3.25,0,0,0-.73-1.17,2.68,2.68,0,0,0-1-.66,3.8,3.8,0,0,0-1.23-.2,4.72,4.72,0,0,0-1,.1,3.63,3.63,0,0,0-.91.32,2,2,0,0,0-.67.57,1.35,1.35,0,0,0-.26.84,1.18,1.18,0,0,0,.23.71,2.66,2.66,0,0,0,.75.64,8.25,8.25,0,0,0,1.32.66c.54.23,1.2.47,2,.74a28.79,28.79,0,0,1,4,1.72,10.39,10.39,0,0,1,2.45,1.76,5.11,5.11,0,0,1,1.25,1.92,6.7,6.7,0,0,1,.35,2.18,7.43,7.43,0,0,1-.73,3.44,6,6,0,0,1-2,2.27,8.37,8.37,0,0,1-3,1.24,16.87,16.87,0,0,1-3.68.38,12.8,12.8,0,0,1-3.65-.51,8.24,8.24,0,0,1-3-1.6,7.94,7.94,0,0,1-2.09-2.83,11.43,11.43,0,0,1-.92-4.2Z" transform="translate(-28.63 -21.32)"/><path class="cls-2" d="M753.56,200a8.7,8.7,0,0,1,.77-3.75,8.28,8.28,0,0,1,2-2.73,8.71,8.71,0,0,1,2.89-1.68,10,10,0,0,1,3.34-.58,11.85,11.85,0,0,1,3.46.49,7.85,7.85,0,0,1,2.8,1.49,6.88,6.88,0,0,1,1.86,2.52,8.83,8.83,0,0,1,.67,3.61v15.82h-5.83V200.16a4.51,4.51,0,0,0-.76-2.93,2.72,2.72,0,0,0-2.21-.91,2.65,2.65,0,0,0-2.1.93,4.68,4.68,0,0,0-.93,2.78Z" transform="translate(-28.63 -21.32)"/></svg>